<svg xmlns="http://www.w3.org/2000/svg" viewBox="0 0 355.91 306.77"><defs><style>.cls-1{fill:#38def4;opacity:0.58;}.cls-2{fill:#7fd6cb;opacity:0.73;}.cls-3{fill:#ffb031;}.cls-4{fill:#ff9433;}.cls-5{fill:#f73;}.cls-6{fill:#00ceea;}.cls-7{fill:#7a4c08;}.cls-8{fill:#fff;}.cls-9{fill:#e6e8e8;}.cls-10{fill:#82ebe3;}.cls-11{fill:#d9dbdb;}.cls-12{fill:#006dcc;}.cls-13{opacity:0.71;}.cls-14{fill:#53d5f4;}</style></defs><title>Asset 1</title><g id="Layer_2" data-name="Layer 2"><g id="OBJECTS"><circle class="cls-1" cx="176.33" cy="162.36" r="120.23"/><path class="cls-2" d="M274.53,191.26v40.42A121,121,0,0,1,259.61,249V191.26h0v-.14c-.07-.3-7.32-6.31-12.9-10.88v-2.53l6.75-1.74a12.83,12.83,0,0,1,8.29.64c1.17.5,2.39,1,3.6,1.38v5.28c5.58,4.57,9.11,7.55,9.18,7.85v.14Z"/><polygon class="cls-3" points="5.21 8.1 40.49 90.89 66.28 73.24 81.22 94.96 83.92 58.33 115.13 39.31 5.21 8.1"/><polygon class="cls-4" points="71.99 69.33 40.49 90.89 66.28 73.24 81.22 94.96 83.92 58.33 34.19 28.71 71.99 69.33"/><polygon class="cls-5" points="83.26 67.31 34.19 28.71 83.92 58.33 83.26 67.31"/><path class="cls-6" d="M81.85,105.28c-.28-1.61-.63-3.22-1-4.78l2.42-.65c.44,1.64.81,3.32,1.1,5Z"/><path class="cls-6" d="M52.64,161.51a20.71,20.71,0,0,1-10.06-3.36L44,156.07A18.21,18.21,0,0,0,52.8,159Zm10.4-2-1.11-2.25a25.19,25.19,0,0,0,7.49-5.9L71.29,153A27.66,27.66,0,0,1,63,159.47Zm-27.43-9.31a20.66,20.66,0,0,1-2.16-9.1c0-.25,0-.51,0-.76l0-.54,2.5.18,0,.46c0,.22,0,.45,0,.66a18.15,18.15,0,0,0,1.9,8Zm96.9-.57v-2.5c3.26,0,6.62-.15,10-.4l.18,2.5C139.25,149.44,135.83,149.57,132.51,149.59Zm-10.16-.33-1.6-.12c-3.08-.26-5.87-.6-8.53-1.06l.43-2.47c2.59.45,5.31.79,8.31,1l1.57.12Zm30.4-1.14-.34-2.48c3.22-.44,6.54-1,9.87-1.63l.47,2.46C159.38,147.12,156,147.68,152.75,148.12Zm-50.48-2.53a48.49,48.49,0,0,1-8.2-3.64l-1.17-.68,1.29-2.15,1.11.65a46.06,46.06,0,0,0,7.78,3.45Zm-25-1-2.17-1.25a56.25,56.25,0,0,0,4.13-8.93l2.36.85A58.73,58.73,0,0,1,77.28,144.59Zm95.38-.28-.59-2.43c3.13-.76,6.39-1.62,9.69-2.57l.69,2.41C179.11,142.67,175.82,143.55,172.65,144.31Zm19.46-5.55-.77-2.38q4.78-1.55,9.5-3.23l.84,2.36Q196.93,137.2,192.12,138.77Zm-107.58-3.3a69.32,69.32,0,0,0-7.46-4.91l-.84-.44,1.15-2.23.89.47A72.4,72.4,0,0,1,86,133.44Zm-45-3.77-1.75-1.79A21.4,21.4,0,0,1,47,125l.84,2.36A19.5,19.5,0,0,0,39.5,131.7Zm27.59-4.89a39.82,39.82,0,0,0-8.68-1h-1l-.06-2.5a42.43,42.43,0,0,1,10.3,1Zm17.14-1.48-2.47-.44a58.12,58.12,0,0,0,.89-9.81h2.5A60.47,60.47,0,0,1,84.24,125.34Z"/><path class="cls-6" d="M211.27,132l-.89-2.34,4.67-1.8.91,2.33Z"/><path class="cls-6" d="M290.12,193a2.5,2.5,0,0,1-.24-5,59.48,59.48,0,0,0,39.21-20.35,2.5,2.5,0,0,1,3.78,3.29,64.46,64.46,0,0,1-42.5,22Z"/><path class="cls-7" d="M259.59,191.26l-87.25,51.45L85.08,191.26a.48.48,0,0,1,0-.14c.07-.33,4.89-4.35,12.23-10.31l.2-.17C121.62,161.08,172.34,121,172.34,121s50.72,40.06,74.81,59.62c7.46,6.05,12.36,10.14,12.43,10.48A.48.48,0,0,1,259.59,191.26Z"/><path class="cls-8" d="M208.22,78.4H114.08A14.62,14.62,0,0,0,99.46,93V235.36A14.62,14.62,0,0,0,114.08,250H232a14.62,14.62,0,0,0,14.62-14.62V116.84Z"/><path class="cls-9" d="M208.22,102.22a14.62,14.62,0,0,0,14.62,14.62h23.82L208.22,78.4Z"/><rect class="cls-10" x="121.73" y="102.46" width="42.9" height="42.9" rx="2.7" ry="2.7"/><path class="cls-11" d="M203.91,157.28H126a4.2,4.2,0,0,0-4.2,4.2h0a4.2,4.2,0,0,0,4.2,4.2h77.93a4.2,4.2,0,0,0,4.2-4.2h0A4.2,4.2,0,0,0,203.91,157.28Z"/><path class="cls-11" d="M203.91,178.18H126a4.2,4.2,0,0,0-4.2,4.2h0a4.2,4.2,0,0,0,4.2,4.2h77.93a4.2,4.2,0,0,0,4.2-4.2h0A4.2,4.2,0,0,0,203.91,178.18Z"/><path class="cls-11" d="M168.51,198.46H126a4.2,4.2,0,0,0-4.2,4.2h0a4.2,4.2,0,0,0,4.2,4.2h42.54a4.2,4.2,0,0,0,4.2-4.2h0A4.2,4.2,0,0,0,168.51,198.46Z"/><path class="cls-3" d="M259.6,191.26V275A10.66,10.66,0,0,1,249,285.6H95.7A10.64,10.64,0,0,1,85.09,275V191.26l87.25,51.45Z"/><path class="cls-4" d="M256.65,282.27l-56.16-56.16-28.15,16.6-28.16-16.6L88,282.27a10.54,10.54,0,0,0,7.67,3.33H249A10.58,10.58,0,0,0,256.65,282.27Z"/><path class="cls-6" d="M277.22,76.35a52.64,52.64,0,0,0-47,48.34,52,52,0,0,0,9.19,33.58,12.71,12.71,0,0,1,1.21,12.12l-4.14,10L253.44,176a12.77,12.77,0,0,1,8.29.64,52.42,52.42,0,1,0,15.5-100.27Z"/><path class="cls-8" d="M283.82,155l2.88-2.88s-2.29-5.39,7.3-14.49c5.71-5.41,7-10.65,6.52-14.94a15,15,0,0,0-13.13-13.13c-4.28-.46-9.53.81-14.94,6.52-9.09,9.59-14.49,7.31-14.49,7.31l-2.88,2.88Z"/><path class="cls-8" d="M261.6,137.4a7.94,7.94,0,0,0,11.1,11.1Z"/><path class="cls-8" d="M302.54,113.06l-1.79,1.79a17.32,17.32,0,0,0-5.53-5.5l1.81-1.81a3.9,3.9,0,1,1,5.51,5.51Z"/><path class="cls-12" d="M281.11,76.12a45.28,45.28,0,1,1-46.28,74,52.55,52.55,0,0,0,4.61,8.13,12.71,12.71,0,0,1,1.21,12.12l-4.14,10L253.44,176a12.77,12.77,0,0,1,8.29.64A52.41,52.41,0,1,0,281.11,76.12Z"/><path class="cls-3" d="M8.2,32.65,19.64,58.91a2.64,2.64,0,0,1-1.37,3.47l-.41.18a2.64,2.64,0,0,1-3.48-1.4l-11-26.44a2.64,2.64,0,0,1,1.52-3.5h0A2.64,2.64,0,0,1,8.2,32.65Z"/><g class="cls-13"><path class="cls-14" d="M53,217.46a8.41,8.41,0,1,0,8.41,8.41A8.41,8.41,0,0,0,53,217.46Zm0,11.82a3.41,3.41,0,1,1,3.41-3.41A3.41,3.41,0,0,1,53,229.28Z"/><path class="cls-14" d="M278.5,251.51a8.41,8.41,0,1,0,8.41,8.41A8.41,8.41,0,0,0,278.5,251.51Zm0,11.82a3.41,3.41,0,1,1,3.41-3.41A3.41,3.41,0,0,1,278.5,263.33Z"/><path class="cls-14" d="M347.34,120.83a6.44,6.44,0,1,0,6.44,6.44A6.44,6.44,0,0,0,347.34,120.83Zm0,9a2.61,2.61,0,1,1,2.61-2.61A2.61,2.61,0,0,1,347.34,129.88Z"/><path class="cls-14" d="M233.9,17.77a6.81,6.81,0,1,0,6.81,6.81A6.81,6.81,0,0,0,233.9,17.77Zm0,9.57a2.76,2.76,0,1,1,2.76-2.76A2.76,2.76,0,0,1,233.9,27.34Z"/><circle class="cls-14" cx="16.02" cy="183.64" r="7.16"/><circle class="cls-14" cx="303.34" cy="205.4" r="5.21"/><circle class="cls-14" cx="130.85" cy="27.53" r="7.61"/><circle class="cls-14" cx="171.6" cy="301.22" r="5.55"/><circle class="cls-14" cx="278.99" cy="55.79" r="6.51"/><circle class="cls-14" cx="48.36" cy="103.6" r="3.71"/><circle class="cls-14" cx="349.59" cy="94.68" r="6.32"/><circle class="cls-14" cx="12.46" cy="125.85" r="4.03"/><path class="cls-14" d="M182.07,6.39l2.53-2.53A2.26,2.26,0,0,0,181.41.66l-2.53,2.53L176.34.66a2.26,2.26,0,0,0-3.19,3.19l2.53,2.53-2.53,2.53a2.26,2.26,0,0,0,3.19,3.19l2.53-2.53,2.53,2.53a2.26,2.26,0,0,0,3.19-3.19Z"/><path class="cls-14" d="M9.58,83l2.53-2.53a2.26,2.26,0,1,0-3.19-3.19L6.39,79.77,3.85,77.23A2.26,2.26,0,1,0,.66,80.43L3.19,83,.66,85.49a2.26,2.26,0,0,0,3.19,3.19l2.53-2.53,2.53,2.53a2.26,2.26,0,0,0,3.19-3.19Z"/><path class="cls-14" d="M308.44,237.69l2.15-2.15a1.91,1.91,0,0,0-2.71-2.71L305.74,235l-2.15-2.15a1.91,1.91,0,0,0-2.71,2.71l2.15,2.15-2.15,2.15a1.91,1.91,0,0,0,2.71,2.71l2.15-2.15,2.15,2.15a1.91,1.91,0,0,0,2.71-2.71Z"/></g></g></g></svg>