<?xml version="1.0" encoding="iso-8859-1"?>
<!-- Generator: Adobe Illustrator 19.0.0, SVG Export Plug-In . SVG Version: 6.00 Build 0)  -->
<svg version="1.1" id="Capa_1" xmlns="http://www.w3.org/2000/svg" xmlns:xlink="http://www.w3.org/1999/xlink" x="0px" y="0px"
	 viewBox="0 0 512 512" style="enable-background:new 0 0 512 512;" xml:space="preserve">
<g>
	<g>
		<path d="M504.5,384.966H482v-49.5c0-20.678-16.822-37.5-37.5-37.5H422v-67.5c0-4.143-3.358-7.5-7.5-7.5
			c-4.142,0-7.5,3.357-7.5,7.5v154.5h-45v-73.71c8.729,3.096,15,11.433,15,21.21v30c0,4.143,3.358,7.5,7.5,7.5
			c4.142,0,7.5-3.357,7.5-7.5v-30c0-20.678-16.822-37.5-37.5-37.5h-60c-20.678,0-37.5,16.822-37.5,37.5v52.5h-32V202.534
			c0-4.143-3.358-7.5-7.5-7.5c-4.142,0-7.5,3.357-7.5,7.5v22.229h-3.861c-14.127,0-27.944-2.001-41.139-5.85v-41.515
			c0-15.163-12.336-27.5-27.5-27.5h-50c-15.164,0-27.5,12.337-27.5,27.5v67.259c-9.693,11.989-15,26.936-15,42.406v50.335
			c0,4.143,3.358,7.5,7.5,7.5H75v40.068H7.5c-4.142,0-7.5,3.357-7.5,7.5s3.358,7.5,7.5,7.5h60.882l-37.108,55.251
			C30.443,456.454,30,457.91,30,459.399v30c0,4.143,3.358,7.5,7.5,7.5c4.142,0,7.5-3.357,7.5-7.5v-27.715l43.276-64.435
			c1.076-1.298,1.724-2.965,1.724-4.783c0-0.068,0-47.568,0-47.568h45v40.068h-22.5c-4.142,0-7.5,3.357-7.5,7.5s3.358,7.5,7.5,7.5
			H135v79.433c0,3.229,2.066,6.095,5.128,7.115l30,10c0.787,0.262,1.586,0.387,2.373,0.387c3.14,0,6.066-1.987,7.114-5.13
			c1.31-3.93-0.814-8.178-4.744-9.487L150,473.994V344.898h22.5c4.142,0,7.5-3.357,7.5-7.5v-50.335c0-15.471-5.307-30.417-15-42.406
			v-10.175c13.265,3.478,27.062,5.282,41.139,5.282H210v145.203h-37.5c-4.142,0-7.5,3.357-7.5,7.5s3.358,7.5,7.5,7.5H210v89.567
			c0,4.143,3.358,7.5,7.5,7.5c4.142,0,7.5-3.357,7.5-7.5v-89.567h183.51c1.369,1.819,3.539,3,5.99,3s4.621-1.181,5.99-3h18.02
			c1.369,1.819,3.539,3,5.99,3s4.621-1.181,5.99-3h18.02c1.369,1.819,3.539,3,5.99,3s4.621-1.181,5.99-3h24.01
			c4.142,0,7.5-3.357,7.5-7.5S508.642,384.966,504.5,384.966z M75,177.398c0-6.893,5.607-12.5,12.5-12.5h50
			c6.893,0,12.5,5.607,12.5,12.5v36.236c-17.433-7.249-33.444-17.921-47.197-31.674c-2.929-2.928-7.678-2.928-10.606,0
			c-2.929,2.93-2.929,7.678,0,10.607c16.666,16.666,36.345,29.221,57.803,37.18v10.151H75V177.398z M165.001,287.063v42.835H165H60
			v-42.835c0-11.686,3.905-22.98,11.039-32.165h82.923C161.095,264.083,165.001,275.377,165.001,287.063z M287,384.966h-15v-15h15
			V384.966z M317,384.966h-15v-15h15V384.966z M347,384.966h-15v-15h15V384.966z M347,354.966h-75v-22.5
			c0-12.406,10.093-22.5,22.5-22.5H347V354.966z M437,384.966h-15v-27h15V384.966z M467,384.966h-15v-27h15V384.966z M467,342.966
			h-45v-30h22.5c12.407,0,22.5,10.094,22.5,22.5V342.966z"/>
	</g>
</g>
<g>
	<g>
		<path d="M474.5,456.966c-4.142,0-7.5,3.357-7.5,7.5v15c0,4.143,3.358,7.5,7.5,7.5c4.142,0,7.5-3.357,7.5-7.5v-15
			C482,460.324,478.642,456.966,474.5,456.966z"/>
	</g>
</g>
<g>
	<g>
		<path d="M444.5,426.966c-4.142,0-7.5,3.357-7.5,7.5v15c0,4.143,3.358,7.5,7.5,7.5c4.142,0,7.5-3.357,7.5-7.5v-15
			C452,430.324,448.642,426.966,444.5,426.966z"/>
	</g>
</g>
<g>
	<g>
		<path d="M414.5,456.966c-4.142,0-7.5,3.357-7.5,7.5v15c0,4.143,3.358,7.5,7.5,7.5c4.142,0,7.5-3.357,7.5-7.5v-15
			C422,460.324,418.642,456.966,414.5,456.966z"/>
	</g>
</g>
<g>
	<g>
		<path d="M187.5,59.966h-23.044c-3.651-25.407-25.554-45-51.956-45c-28.949,0-52.5,23.552-52.5,52.5v2.606
			c-16.756,1.282-30,15.315-30,32.394c0,17.921,14.58,32.5,32.5,32.5c8.102,0,15.803-3.021,21.702-8.314
			c8.173,5.253,17.881,8.314,28.298,8.314c28.949,0,52.5-23.552,52.5-52.5v-7.5h22.5c4.142,0,7.5-3.357,7.5-7.5
			S191.642,59.966,187.5,59.966z M112.5,29.966c18.11,0,33.261,12.904,36.745,30h-73.49C79.239,42.87,94.39,29.966,112.5,29.966z
			 M62.5,119.967c-9.649,0-17.5-7.851-17.5-17.5c0-8.823,6.569-16.121,15.068-17.311c0.609,12.005,5.28,22.95,12.649,31.51
			C69.777,118.781,66.218,119.967,62.5,119.967z M150,82.466c0,20.678-16.822,37.5-37.5,37.5S75,103.144,75,82.466v-3.734
			c0.053-0.516,0.051-1.027,0-1.528v-2.239h75V82.466z"/>
	</g>
</g>
<g>
</g>
<g>
</g>
<g>
</g>
<g>
</g>
<g>
</g>
<g>
</g>
<g>
</g>
<g>
</g>
<g>
</g>
<g>
</g>
<g>
</g>
<g>
</g>
<g>
</g>
<g>
</g>
<g>
</g>
</svg>
