<?xml version="1.0" encoding="utf-8"?>
<!-- Svg Vector Icons : http://www.onlinewebfonts.com/icon -->
<!DOCTYPE svg PUBLIC "-//W3C//DTD SVG 1.1//EN" "http://www.w3.org/Graphics/SVG/1.1/DTD/svg11.dtd">
<svg version="1.1" xmlns="http://www.w3.org/2000/svg" xmlns:xlink="http://www.w3.org/1999/xlink" x="0px" y="0px" viewBox="0 0 1000 1000" enable-background="new 0 0 1000 1000" xml:space="preserve">
<metadata> Svg Vector Icons : http://www.onlinewebfonts.com/icon </metadata>
<g><g><g id="Alarm_Clock"><path d="M266.1,335.7c-3.9,0-7.9-1.5-10.8-4.5l-46.2-46.2c-6-6-6-15.8,0-21.8c6-6,15.7-6,21.8,0l46.2,46.2c6,6,6,15.8,0,21.8C274,334.3,270.1,335.7,266.1,335.7z"/><path d="M146.1,215.7c-3.9,0-7.9-1.5-10.9-4.5l-28.9-28.9c-6-6-6-15.8,0-21.8c6.1-6,15.8-6,21.8,0l28.9,28.9c6,6,6,15.8,0,21.8C154,214.2,150.1,215.7,146.1,215.7z"/><path d="M858.8,215.7c-3.9,0-7.9-1.5-10.9-4.5c-6-6-6-15.8,0-21.8l28.9-28.9c6-6,15.8-6,21.8,0c6,6,6,15.8,0,21.8l-28.9,28.9C866.6,214.2,862.7,215.7,858.8,215.7z"/><path d="M735.5,335.7c-3.9,0-7.9-1.5-10.8-4.5c-6-6-6-15.8,0-21.8l46.2-46.2c6-6,15.7-6,21.8,0c6,6,6,15.8,0,21.8l-46.2,46.2C743.4,334.3,739.4,335.7,735.5,335.7z"/><g><path d="M150.2,920.9c-2.6,0-5.3-0.7-7.7-2.1c-7.4-4.3-9.8-13.7-5.6-21L204.9,781c4.3-7.4,13.6-9.8,21-5.6c7.4,4.3,9.8,13.7,5.6,21l-67.9,116.9C160.7,918.2,155.5,920.9,150.2,920.9z"/><path d="M230,967c-2.6,0-5.3-0.7-7.8-2.1c-7.3-4.3-9.8-13.7-5.5-21.1l54.5-92.7c4.3-7.3,13.7-9.8,21.1-5.5c7.3,4.3,9.8,13.7,5.5,21.1l-54.5,92.8C240.4,964.3,235.3,967,230,967z"/><path d="M190.3,990c-10.7,0-21.1-2.8-30.6-8.3c-29.3-16.9-39.4-54.5-22.5-83.7c4.2-7.4,13.6-9.9,21-5.6c7.4,4.2,9.9,13.7,5.6,21c-8.4,14.5-3.4,33.3,11.2,41.7c7.1,4.1,15.3,5.2,23.2,3c7.9-2.1,14.4-7.1,18.5-14.2c4.2-7.4,13.6-9.9,21-5.6c7.4,4.2,9.9,13.6,5.7,21c-8.2,14.2-21.4,24.4-37.2,28.6C200.9,989.3,195.6,990,190.3,990z"/></g><g><path d="M857.1,920.9c-5.3,0-10.5-2.8-13.3-7.7l-67.9-116.9c-4.3-7.3-1.8-16.7,5.5-21c7.4-4.2,16.8-1.8,21,5.6l67.9,116.9c4.3,7.3,1.8,16.7-5.5,21C862.4,920.3,859.7,920.9,857.1,920.9z"/><path d="M777.3,967c-5.3,0-10.4-2.7-13.2-7.6l-54.6-92.8c-4.3-7.3-1.9-16.7,5.5-21.1c7.3-4.3,16.7-1.8,21,5.5l54.6,92.8c4.3,7.3,1.9,16.7-5.5,21.1C782.7,966.3,780,967,777.3,967z"/><path d="M817.1,989.9c-21.2,0-41.8-11-53.2-30.6c-4.2-7.4-1.7-16.7,5.6-21c7.4-4.2,16.8-1.7,21,5.6c8.4,14.5,27.1,19.6,41.8,11.1c14.5-8.4,19.6-27.1,11.2-41.6c-4.2-7.3-1.7-16.7,5.6-21c7.3-4.2,16.8-1.7,21,5.6c16.9,29.2,6.8,66.8-22.5,83.7C838.1,987.3,827.5,989.9,817.1,989.9z"/></g><path d="M502.6,886.5L502.6,886.5c-166.8,0-302.4-135.7-302.4-302.5c0-166.7,135.6-302.3,302.4-302.4c80.8,0,156.7,31.5,213.9,88.6C773.6,427.3,805,503.2,805,584c0,80.8-31.5,156.7-88.6,213.9C659.3,855,583.4,886.5,502.6,886.5z M502.6,302.1c-155.5,0-282,126.5-281.9,281.9c0,155.5,126.4,281.9,281.9,282c75.3,0,146.1-29.3,199.3-82.6c53.3-53.3,82.6-124,82.6-199.4c0-75.3-29.3-146.1-82.6-199.3C648.7,331.4,577.9,302.1,502.6,302.1z"/><path d="M502.9,955.3L502.9,955.3c-204.7-0.1-371.1-166.6-371.1-371.2c0-204.6,166.4-371,371-371.1c99.1,0,192.4,38.6,262.5,108.7c70.1,70.1,108.7,163.3,108.7,262.4c0,99.1-38.6,192.3-108.7,262.4C695.3,916.7,602.1,955.3,502.9,955.3z M502.9,254.1c-182,0.1-330.1,148.1-330.1,330.1c0,182,148,330.1,330.1,330.1c88.2,0,171.1-34.3,233.4-96.7c62.3-62.4,96.7-145.3,96.7-233.4c0-88.1-34.3-171-96.7-233.4C674,288.4,591.1,254.1,502.9,254.1z"/><g><path d="M503.1,412.6c-5.6,0-10.3-4.6-10.3-10.3v-52.4c0-5.7,4.6-10.3,10.3-10.3c5.6,0,10.3,4.6,10.3,10.3v52.4C513.3,408,508.7,412.6,503.1,412.6z"/><path d="M413,436.5c-3.5,0-7-1.8-8.9-5.1L377.9,386c-2.8-4.9-1.2-11.2,3.8-14c4.9-2.9,11.2-1.2,14,3.8l26.2,45.4c2.9,4.9,1.2,11.2-3.8,14C416.5,436,414.7,436.5,413,436.5z"/><path d="M346,502.8c-1.7,0-3.5-0.4-5.1-1.4l-45.4-26.2c-4.9-2.8-6.6-9.1-3.8-14c2.8-4.9,9.1-6.6,14-3.8l45.4,26.2c4.9,2.8,6.6,9.1,3.7,14C353,500.9,349.5,502.8,346,502.8z"/><path d="M322,594.5h-52.4c-5.6,0-10.3-4.6-10.3-10.3c0-5.7,4.6-10.3,10.3-10.3H322c5.6,0,10.3,4.6,10.3,10.3C332.2,589.9,327.6,594.5,322,594.5z"/><path d="M299.7,711c-3.6,0-7-1.8-8.9-5.1c-2.8-4.9-1.2-11.2,3.8-14l45.4-26.2c4.9-2.8,11.2-1.1,14,3.8c2.8,4.9,1.2,11.2-3.7,14l-45.4,26.1C303.2,710.5,301.4,711,299.7,711z"/><path d="M385.1,797.2c-1.7,0-3.5-0.4-5.1-1.4c-4.9-2.8-6.6-9.1-3.8-14l26.2-45.3c2.8-4.9,9.1-6.6,14-3.8c4.9,2.8,6.6,9.1,3.8,14L394,792C392.1,795.3,388.7,797.2,385.1,797.2z"/><path d="M503.4,829.1c-5.7,0-10.3-4.6-10.3-10.3v-52.3c0-5.7,4.6-10.3,10.3-10.3c5.7,0,10.3,4.6,10.3,10.3v52.3C513.7,824.5,509.1,829.1,503.4,829.1z"/><path d="M619.6,798.1c-3.5,0-7-1.8-8.9-5.1l-26.2-45.3c-2.9-4.9-1.2-11.2,3.7-14c4.8-2.8,11.1-1.2,14,3.7l26.2,45.3c2.9,4.9,1.2,11.2-3.7,14C623.1,797.7,621.3,798.1,619.6,798.1z"/><path d="M705.7,712.7c-1.7,0-3.5-0.4-5.1-1.4l-45.3-26.1c-4.9-2.8-6.6-9.1-3.8-14c2.8-4.9,9.1-6.6,14-3.8l45.3,26.1c4.9,2.8,6.6,9.1,3.7,14C712.7,710.8,709.3,712.7,705.7,712.7z"/><path d="M684.4,594.8c-5.7,0-10.3-4.6-10.3-10.3s4.6-10.3,10.3-10.3l52.3,0l0,0c5.7,0,10.3,4.6,10.3,10.3s-4.6,10.3-10.3,10.3L684.4,594.8L684.4,594.8z"/><path d="M661.4,504.5c-3.5,0-7-1.8-8.9-5.1c-2.8-4.9-1.2-11.2,3.8-14l45.3-26.2c4.8-2.9,11.2-1.2,14,3.7c2.9,4.9,1.2,11.2-3.7,14l-45.3,26.2C664.9,504,663.1,504.5,661.4,504.5z"/><path d="M595.1,437.4c-1.7,0-3.5-0.4-5.1-1.4c-4.9-2.8-6.6-9.1-3.8-14l26.1-45.3c2.9-4.9,9.1-6.6,14.1-3.8c4.9,2.8,6.6,9.1,3.8,14L604,432.3C602.1,435.6,598.6,437.4,595.1,437.4z"/></g><path d="M502.1,623.1c-21.7,0-39.4-17.7-39.4-39.4c0-21.7,17.7-39.4,39.4-39.4c21.8,0,39.4,17.7,39.4,39.4C541.4,605.5,523.8,623.1,502.1,623.1z M502.1,573.9c-5.4,0-9.8,4.4-9.8,9.8c0,5.4,4.4,9.8,9.8,9.8c5.5,0,9.8-4.4,9.8-9.8C511.9,578.3,507.5,573.9,502.1,573.9z"/><path d="M700.3,647c-1.2,0-2.4-0.1-3.6-0.4l-198.4-48.2c-8.3-2-13.3-10.3-11.3-18.6c2-8.2,10.3-13.2,18.5-11.3l198.4,48.2c8.3,2,13.3,10.4,11.3,18.6C713.5,642.3,707.2,647,700.3,647z"/><path d="M379,668.9c-5.4,0-10.6-2.8-13.4-7.9c-4.1-7.4-1.5-16.8,5.9-21l101.3-56.9c7.5-4.1,16.8-1.5,21,5.9c4.1,7.4,1.5,16.8-5.9,21L386.5,667C384.1,668.3,381.5,668.9,379,668.9z"/><path d="M119.4,379.8c-0.5,0-1,0-1.5-0.1c-4.3-0.4-8.3-2.7-10.9-6.2c-42.2-56.9-29.6-127.6,32.8-184.4c33.3-30.3,71.4-47,107.2-47c29,0,56.5,10.9,79.5,31.6c3.2,2.9,5.1,7,5.1,11.4c0,4.3-1.8,8.5-5,11.4L129.8,375.9C126.9,378.4,123.1,379.8,119.4,379.8z M246.9,172.9c-28.1,0-58.8,13.9-86.4,39c-44.9,40.9-58.4,88-37.8,128.7l169.5-154.5C278.2,177.4,263,172.9,246.9,172.9z"/><path d="M880.6,379.8c-3.8,0-7.5-1.4-10.4-4L673.5,196.5c-3.2-2.9-5-7.1-5-11.4c0-4.3,1.9-8.5,5.1-11.4c23-20.6,50.5-31.6,79.5-31.6c35.8,0,73.8,16.7,107.1,47c62.4,56.8,74.9,127.5,32.8,184.4c-2.6,3.5-6.5,5.7-10.9,6.2C881.6,379.8,881.1,379.8,880.6,379.8z M707.8,186.2l169.5,154.5c20.6-40.7,7.2-87.7-37.8-128.7C796,172.3,746.1,162,707.8,186.2z"/><path d="M321.1,181.1c-31.2,0-61-7-66-8.3c-8.2-2.1-13.3-10.4-11.2-18.6c2.1-8.3,10.4-13.3,18.6-11.3c26.4,6.5,76,12.3,97,0.4c9-5.1,12.4-19.7,16.4-36.6C385,68.2,398.9,10,502.3,10c8.5,0,15.4,6.9,15.4,15.4s-6.9,15.4-15.4,15.4c-79.1,0-87.5,35.5-96.4,73.1c-5.2,21.9-10.7,44.5-31.2,56.2C360,178.4,340.3,181.1,321.1,181.1z"/><path d="M684.7,181.1c-19.2,0-38.9-2.7-53.6-11.1c-20.5-11.7-25.9-34.3-31.1-56.2c-8.9-37.6-17.4-73.1-96.4-73.1c-8.5,0-15.4-6.9-15.4-15.4S495,10,503.5,10c103.3,0,117.2,58.2,126.4,96.7c4,16.9,7.5,31.5,16.4,36.6c23.6,13.5,79.3,4,97-0.4c8.3-2.1,16.6,3,18.6,11.2c2.1,8.2-3,16.6-11.3,18.6C745.6,174.1,715.8,181.1,684.7,181.1z"/></g><g></g><g></g><g></g><g></g><g></g><g></g><g></g><g></g><g></g><g></g><g></g><g></g><g></g><g></g><g></g></g><g></g><g></g><g></g><g></g><g></g><g></g><g></g><g></g><g></g><g></g><g></g><g></g><g></g><g></g><g></g></g>
</svg>