<svg xmlns="http://www.w3.org/2000/svg" viewBox="0 0 163 67"><defs><style>.cls-1{fill:#f0ecdf;}.cls-2{font-size:11.71px;font-family:MuseoSlab-500, MuseoSlab 500;letter-spacing:0em;}.cls-11,.cls-17,.cls-18,.cls-2,.cls-3,.cls-9{fill:#695747;}.cls-18,.cls-3{font-size:10.64px;}.cls-3{font-family:Museo-300, Museo 300;}.cls-4{letter-spacing:-0.08em;}.cls-5{letter-spacing:-0.04em;}.cls-6{letter-spacing:-0.03em;}.cls-7{letter-spacing:-0.01em;}.cls-8{letter-spacing:-0.08em;}.cls-9{font-size:18.1px;font-family:SeasideResortNF, SeasideResortNF;letter-spacing:0.08em;}.cls-10{letter-spacing:0.09em;}.cls-11{font-size:7.45px;}.cls-11,.cls-18{font-family:Museo-500, Museo 500;}.cls-12{letter-spacing:-0.01em;}.cls-13{letter-spacing:-0.08em;}.cls-14{letter-spacing:-0.01em;}.cls-15{letter-spacing:0em;}.cls-16,.cls-19{fill:none;stroke-miterlimit:10;}.cls-16{stroke:#424242;}.cls-19{stroke:#000;}</style></defs><title>Asset 1</title><g id="Layer_2" data-name="Layer 2"><g id="OBJECTS"><path d="M1.55,56.51C7,57.05,11.64,61,11.64,67h142a10.46,10.46,0,0,1,8.62-10.4c.16-.51.75-.75.75-.86V53.3c0-.14-1.19-.74-1.19-1.46S163,50.53,163,50.39V48c0-.14-1.19-.74-1.19-1.46S163,45.18,163,45V42.61c0-.14-1.19-.74-1.19-1.46S163,39.84,163,39.7V37.26c0-.14-1.19-.74-1.19-1.46S163,34.49,163,34.35V31.92c0-.14-1.19-.74-1.19-1.46S163,29.14,163,29V26.57c0-.14-1.19-.74-1.19-1.46S163,23.8,163,23.66V21.22c0-.14-1.19-.74-1.19-1.46S163,18.45,163,18.31V15.87c0-.14-1.19-.74-1.19-1.46S163,13.1,163,13V11.42C157,11.11,153.63,6,153.63,0h-142C11.64,6,6,11.45,0,11.45V13c1,.14,1.19.74,1.19,1.46S1,15.74,0,15.87v2.44c1,.14,1.19.74,1.19,1.46S1,21.08,0,21.22v2.44c1,.14,1.19.74,1.19,1.46S1,26.43,0,26.57V29c1,.14,1.19.74,1.19,1.45S1,31.78,0,31.92v2.44c1,.14,1.19.74,1.19,1.45S1,37.13,0,37.26V39.7c1,.14,1.19.74,1.19,1.45S1,42.47,0,42.61V45c1,.14,1.19.74,1.19,1.45S1,47.82,0,48v2.44c1,.14,1.19.74,1.19,1.45S1,53.17,0,53.3v2.44C1,55.84,1.37,56,1.55,56.51Z"/><path class="cls-1" d="M14.49,64.39A13.52,13.52,0,0,0,4.38,54a5.23,5.23,0,0,0,.42-2.17,4.88,4.88,0,0,0-.69-2.67A4.88,4.88,0,0,0,4.8,46.5a4.88,4.88,0,0,0-.69-2.67,4.88,4.88,0,0,0,.69-2.67,4.88,4.88,0,0,0-.69-2.67,4.88,4.88,0,0,0,.69-2.67,4.88,4.88,0,0,0-.69-2.67,4.88,4.88,0,0,0,.69-2.67,4.88,4.88,0,0,0-.69-2.67,4.88,4.88,0,0,0,.69-2.67,4.88,4.88,0,0,0-.69-2.67,4.88,4.88,0,0,0,.69-2.67,4.88,4.88,0,0,0-.69-2.67,4.88,4.88,0,0,0,.69-2.67c0-.13,0-.26,0-.39a13.71,13.71,0,0,0,9.7-10.32H150.8A14.26,14.26,0,0,0,159,13.64a4,4,0,0,0-.08.78,4.11,4.11,0,0,0,1,2.68,4,4,0,0,0,0,5.35,4,4,0,0,0,0,5.35,4,4,0,0,0,0,5.35,4,4,0,0,0,0,5.35,4,4,0,0,0,0,5.35,4,4,0,0,0,0,5.35,4.1,4.1,0,0,0-1,2.67,4,4,0,0,0,.82,2.42,13.73,13.73,0,0,0-8.94,10.11Z"/><text class="cls-2" transform="translate(30.72 21.25)">ADMIT ONE</text><text class="cls-3" transform="translate(20.46 56.35)">ON<tspan class="cls-4" x="14.34" y="0">L</tspan><tspan x="18.47" y="0">Y FOR</tspan><tspan class="cls-5" x="44.73" y="0"> </tspan><tspan class="cls-6" x="46.55" y="0">T</tspan><tspan x="51.55" y="0">O</tspan><tspan class="cls-7" x="58.88" y="0">D</tspan><tspan class="cls-8" x="65.83" y="0">A</tspan><tspan x="71.5" y="0">Y</tspan></text><text class="cls-9" transform="translate(29.61 40.39)">TICK<tspan class="cls-10" x="39.34" y="0">E</tspan><tspan x="49.96" y="0">T</tspan></text><text class="cls-11" transform="translate(114.21 41.91)">FRI<tspan class="cls-12" x="9.42" y="0">D</tspan><tspan class="cls-13" x="14.28" y="0">A</tspan><tspan x="18.25" y="0">Y</tspan></text><text class="cls-11" transform="translate(113.12 56.05)">9:00 <tspan class="cls-14" x="14.59" y="0">P</tspan><tspan class="cls-15" x="18.46" y="0">M</tspan></text><line class="cls-16" x1="145" y1="32.5" x2="103.81" y2="32.5"/><line class="cls-16" x1="145" y1="46.5" x2="104.09" y2="46.5"/><polygon class="cls-17" points="11.56 16.02 12.43 17.77 14.35 18.05 12.96 19.41 13.29 21.32 11.56 20.42 9.84 21.32 10.17 19.41 8.78 18.05 10.7 17.77 11.56 16.02"/><polygon class="cls-17" points="11.56 26.27 12.43 28.02 14.35 28.3 12.96 29.66 13.29 31.57 11.56 30.67 9.84 31.57 10.17 29.66 8.78 28.3 10.7 28.02 11.56 26.27"/><polygon class="cls-17" points="11.56 36.52 12.43 38.27 14.35 38.55 12.96 39.91 13.29 41.82 11.56 40.92 9.84 41.82 10.17 39.91 8.78 38.55 10.7 38.27 11.56 36.52"/><polygon class="cls-17" points="11.56 46.77 12.43 48.52 14.35 48.8 12.96 50.16 13.29 52.07 11.56 51.17 9.84 52.07 10.17 50.16 8.78 48.8 10.7 48.52 11.56 46.77"/><polygon class="cls-17" points="154.2 16.02 155.06 17.77 156.99 18.05 155.6 19.41 155.93 21.32 154.2 20.42 152.48 21.32 152.81 19.41 151.42 18.05 153.34 17.77 154.2 16.02"/><polygon class="cls-17" points="154.2 26.27 155.06 28.02 156.99 28.3 155.6 29.66 155.93 31.57 154.2 30.67 152.48 31.57 152.81 29.66 151.42 28.3 153.34 28.02 154.2 26.27"/><polygon class="cls-17" points="154.2 36.52 155.06 38.27 156.99 38.55 155.6 39.91 155.93 41.82 154.2 40.92 152.48 41.82 152.81 39.91 151.42 38.55 153.34 38.27 154.2 36.52"/><polygon class="cls-17" points="154.2 46.77 155.06 48.52 156.99 48.8 155.6 50.16 155.93 52.07 154.2 51.17 152.48 52.07 152.81 50.16 151.42 48.8 153.34 48.52 154.2 46.77"/><text class="cls-18" transform="translate(111.28 25.16)">6.30 $</text><rect class="cls-19" x="104.09" y="9.61" width="40.9" height="49.83"/></g></g></svg>