<svg xmlns="http://www.w3.org/2000/svg" xmlns:xlink="http://www.w3.org/1999/xlink" version="1.1" x="0px" y="0px" viewBox="0 0 100 125" enable-background="new 0 0 100 100" xml:space="preserve"><path d="M35.8888779,38.5043945v-2.1025391c0-0.4140625,0.3359375-0.75,0.75-0.75s0.75,0.3359375,0.75,0.75v1.9326172h1.1533203  c0.4140625,0,0.75,0.3359375,0.75,0.75s-0.3359375,0.75-0.75,0.75H37.218956  C36.4855576,39.8344727,35.8888779,39.237793,35.8888779,38.5043945z M30.8444424,35.1420898  c0.8066406,0,1.4605732-0.6539307,1.4605732-1.4605713c0-0.8065796-0.6539326-1.4605103-1.4605732-1.4605103  c-0.8065796,0-1.4605103,0.6539307-1.4605103,1.4605103C29.3839321,34.4881592,30.0378628,35.1420898,30.8444424,35.1420898z   M44.3367538,35.1420898c0.8066406,0,1.4605103-0.6539307,1.4605103-1.4605713c0-0.8065796-0.6538696-1.4605103-1.4605103-1.4605103  s-1.4605713,0.6539307-1.4605713,1.4605103C42.8761826,34.4881592,43.5301132,35.1420898,44.3367538,35.1420898z   M37.590538,44.7675781c1.7749023,0,3.6713867-0.4316406,3.6713867-1.6430664c0-0.4140625-0.3359375-0.75-0.75-0.75  c-0.3344727,0-0.6176758,0.21875-0.7143555,0.5214844c-0.2509766,0.1484375-1.0400391,0.371582-2.2070313,0.371582  s-1.9555664-0.2231445-2.206543-0.371582c-0.0966797-0.3027344-0.3798828-0.5214844-0.7143555-0.5214844  c-0.4140625,0-0.75,0.3359375-0.75,0.75C33.9196396,44.3359375,35.816124,44.7675781,37.590538,44.7675781z M91.4489594,87.4453125  c0.3017578,0.5478516,0.2919922,1.1962891-0.0263672,1.734375s-0.8818359,0.859375-1.5068359,0.859375h-5.1074219  c-0.625,0-1.1884766-0.3212891-1.5068359-0.859375s-0.328125-1.1855469-0.0273438-1.734375l1.1943359-2.1699219  c0.0527344-0.0947266,0.0371094-0.2060547-0.0380859-0.2832031C82.9792328,83.5,82.1139984,80.9833984,82.1139984,78.2597656  c0-4.2758789,2.0484009-7.6762695,4.7470703-8.0540161V44.2759399c-14.0032349-6.8041992-25.8902626-0.3852539-34.2123451,7.6065674  c0.0164185,0.010437,0.0344849,0.0181885,0.0505371,0.0291138c1.4133911,0.5514526,2.5407104,1.7674561,2.9078979,3.3569336  l5.078125,21.9970703c0.4003906,1.7333984-0.2021484,3.5458984-1.5605469,4.6953125  c-0.8730469,0.7382813-1.9638672,1.1230469-3.0683594,1.1230469c-0.6142578,0-1.2329102-0.1191406-1.8203125-0.3632813  l-0.7705078-0.3198853v6.6235962c0,0.9648438-0.7851563,1.75-1.75,1.75h-28.25c-0.9648438,0-1.75-0.7851563-1.75-1.75v-7.5391235  l-11.0532227-3.6210327c-1.4580078-0.4775391-2.5957031-1.6298828-3.0541987-3.09375  c-0.4584961-1.4638672-0.1821289-3.0595703,0.7426753-4.2832031l13.6233521-18.0326538l0.2280884-0.3019409  c0.3189087-0.3343506,0.7659302-0.5452881,1.2633057-0.5452881h2.8634644  c0.0699463-0.1745605,0.1676636-0.3408813,0.3015747-0.4882813l0.786377-0.8656616l0.9533691-1.0493774  c0.6147461-0.6757813,1.7104492-0.7265625,2.4404297-0.1074219l0.1782227,0.1505737v-1.5397949  c-2.9326172-1.7285156-4.7073975-4.5444946-5.7712402-7.9310303c-0.1287842,0.0236816-0.2600708,0.0355835-0.3928223,0.0355835  c-0.5322266,0-1.0878906-0.1884766-1.6015625-0.5541992c-0.6870117-0.4892578-1.2592773-1.2568359-1.6113281-2.1616211  c-0.7822266-2.0073242-0.2573242-4.0234375,1.1948242-4.5898438c0.0684814-0.0266724,0.1400146-0.0313721,0.2096558-0.0505981  c-0.2078857-0.9821167-0.6403198-3.3494873-0.6759033-6.1744385c-0.0996094-0.0457764-0.1895142-0.1124268-0.2617798-0.1983032  c-0.1425781-0.1694336-0.2026367-0.3935547-0.1645508-0.6118164l1.0795898-6.1625977  c0.3359375-1.918457,1.3056641-3.6821289,2.7304688-4.9658203c1.854126-1.670166,4.8253784-3.6166382,8.9685059-4.3961182  c0.7080078-0.4880371,1.8258667-0.7210693,2.8977051-0.7210693c1.0795898,0,2.2073975,0.2354736,2.9144897,0.730835  c4.1502686,0.7858887,7.1055298,2.7229004,8.9517212,4.3863525c1.4248047,1.2836914,2.3945313,3.0473633,2.7304688,4.9658203  l1.0795898,6.1625977c0.0380859,0.2182617-0.0219727,0.4423828-0.1645508,0.6118164  c-0.0714722,0.0848999-0.1599121,0.1517944-0.2581787,0.1975098c-0.0065308,2.746521-0.4058228,5.0855103-0.6311035,6.1870117  c0.0532227,0.0160522,0.1082764,0.0183716,0.1607666,0.0388184c1.4521484,0.565918,1.9775391,2.5820313,1.1958008,4.5898438  c-0.6459961,1.6586914-1.9521484,2.7182617-3.2060547,2.7182617c-0.1322632,0-0.2639771-0.0118408-0.3942261-0.0359497  c-1.0632324,3.3999634-2.8394775,6.2243652-5.7771606,7.9505005v1.517334l0.1782227-0.1506348  c0.7299805-0.6162109,1.8242188-0.5693359,2.4404297,0.109375l1.7397461,1.9130859  c0.1342163,0.1477051,0.2320557,0.3143311,0.302063,0.4892578h1.6713257  c8.7599487-8.8106079,21.7221107-16.4037476,37.212162-8.7998047c0.4208984,0.2070313,0.5947266,0.7163086,0.3876953,1.1376953  c-0.0620728,0.1268311-0.1565552,0.2224121-0.2626953,0.3009644v25.9593506  c2.6995239,0.3763428,4.7480469,3.7772217,4.7480469,8.0541382c0,2.7246094-0.8662109,5.2412109-2.3164063,6.7324219  c-0.0742188,0.0761719-0.0898438,0.1894531-0.0380859,0.2822266L91.4489594,87.4453125z M21.7155571,68.5571899  l-1.7753906,2.3500366l1.7753906,0.581665V68.5571899z M40.206768,54.5800781  c-0.0932617,0.078125-0.1279297,0.1962891-0.0771484,0.2617188l2.0576172,2.625  c0.0371094,0.0478516,0.1015625,0.0576172,0.1362305,0.0595703c0.0942383-0.0029297,0.1889648-0.0351563,0.2573242-0.1064453  l4.8144531-5.0498047c0.0037842-0.0039673,0.003479-0.008667,0.006958-0.0126953  c0.0684814-0.0791016,0.0877075-0.1755981,0.0384521-0.2294922l-0.4732666-0.5205078l-1.2669678-1.3935547  c-0.03125-0.0351563-0.0844727-0.0546875-0.1455078-0.0546875c-0.0693359,0-0.1489258,0.0253906-0.2158203,0.0830078  L40.206768,54.5800781z M42.6921196,50.5143433v-2.0405884c-1.4429932,0.5903931-3.1159058,0.9603882-5.0634766,1.0594482  c-1.9795532-0.1000977-3.6781616-0.4755859-5.1396484-1.0768433v2.0584717l3.0681152,2.5925903l0.3859863,0.3261719  c0.0066528,0.0056152,0.0113525,0.0125122,0.0178833,0.0182495c0.3510132,0.3057861,0.5554199,0.7133179,0.6018677,1.1329346  c0.0043335,0.0129395,0.0142822,0.0220337,0.0179443,0.0353394l1.0097656,3.6738281l1.0097656-3.6738281  c0.0037842-0.0136719,0.0139771-0.0230713,0.0184326-0.0363159c0.0466309-0.4195557,0.2509766-0.8268433,0.6018677-1.131958  c0.0061646-0.0053711,0.0106201-0.0119629,0.0169067-0.0172729l0.3870239-0.3271484L42.6921196,50.5143433z M51.6027641,33.8637695  c-0.1459961,0-0.3076172,0.0437622-0.4744263,0.1257935c-0.1710205,1.4939575-0.4140015,2.942627-0.7520752,4.3182983  c0.5741577-0.0164795,1.3739624-0.6728516,1.7958374-1.7556152c0.4863281-1.2495117,0.2202148-2.4287109-0.3427734-2.6484375  C51.7599907,33.8769531,51.6838188,33.8637695,51.6027641,33.8637695z M35.5358696,11.1835938  c0.0379639,0.0269775,0.105957,0.0578613,0.1633301,0.0876465c0.3325806,0.1724854,0.9669189,0.3708496,1.8913574,0.3708496  c0.9153442,0,1.5460815-0.1943359,1.8817139-0.3656006c0.0620117-0.0316772,0.1327515-0.0643311,0.1729736-0.0928955  c-0.0446167-0.0316772-0.1206055-0.0678101-0.1920776-0.1030884c-0.3414307-0.1686401-0.9663086-0.3549194-1.8626099-0.3549194  c-1.053894,0-1.7487183,0.258728-2.0238647,0.4414673C35.5588188,11.1723022,35.5430107,11.1785278,35.5358696,11.1835938z   M23.7740898,23.546814c0.2077026-0.1165161,0.4141235-0.2357788,0.6244507-0.3465576  c0.0313721-0.0165405,0.0617065-0.0353394,0.0932007-0.0517578c0.2645874-0.1380615,0.5333252-0.2651978,0.8016968-0.3942871  c2.0335083-0.9779053,4.1678467-1.7034912,6.3556519-2.1647949c0.5427856-0.114502,1.0888672-0.2084961,1.6369019-0.2911377  c1.3598633-0.2051392,2.7316284-0.3189087,4.1056519-0.3282471c0.5897217-0.0039673,1.1790161,0.0131226,1.7679443,0.045166  c0.8730469,0.0474854,1.743042,0.1359863,2.6088257,0.2626953c0.2149048,0.0314941,0.4285889,0.0706177,0.6427612,0.1069336  c2.5773315,0.4373169,5.0969849,1.2263184,7.4766235,2.3705444c0.2684326,0.1290283,0.5372314,0.2561646,0.8018188,0.394165  c0.0160522,0.0083618,0.0314941,0.0180054,0.0474854,0.0263672c0.2258911,0.1184082,0.4471436,0.2469482,0.670105,0.3718872  l-0.6975098-3.9804077c-0.0062866-0.0358887-0.0206909-0.069397-0.0275269-0.1051636  c-0.0849609-0.4456787-0.2182007-0.8757935-0.3821411-1.2938843c-0.3278809-0.8359375-0.8104248-1.5949097-1.4146118-2.2487793  c-0.1433716-0.1552124-0.2754517-0.3209229-0.4325562-0.4625244c-0.8969116-0.8080444-2.0918579-1.6835938-3.5620117-2.4435425  c-1.090332-0.5636597-2.3253784-1.0657349-3.7442017-1.4124756c-0.0592041,0.1786499-0.1531982,0.3414917-0.2809448,0.487854  c-0.3671265,0.4204102-0.9890747,0.7045898-1.7008667,0.8713379c-0.5009766,0.1174316-1.0410156,0.1818848-1.5742798,0.1818848  c-0.0843506,0-0.1691895-0.0083008-0.2539063-0.0111694c-1.1906738-0.0402222-2.3886719-0.362854-2.9851685-1.0087891  c-0.1447144-0.1566772-0.2540283-0.3308105-0.3178711-0.5258789c-1.1657104,0.2854004-2.2172241,0.6731567-3.1629639,1.1170654  c-1.7461548,0.8196411-3.1265259,1.8286133-4.142395,2.7437134c-1.1501465,1.0366211-1.9342041,2.4570923-2.2293091,4.005188  c-0.0068359,0.0357666-0.0212402,0.0692749-0.0275269,0.1051636L23.7740898,23.546814z M24.8095512,38.3081665  c-0.3395996-1.3755493-0.5835571-2.8239746-0.7553101-4.317749c-0.1673584-0.0824585-0.3295288-0.1266479-0.4758911-0.1266479  c-0.0810547,0-0.1572266,0.0131836-0.2270508,0.0400391c-0.5625,0.2197266-0.8286133,1.3984375-0.3417969,2.6479492  c0.2436523,0.6264648,0.6386719,1.1674805,1.0839844,1.4838867C24.2531548,38.1499023,24.5287895,38.3047485,24.8095512,38.3081665z   M25.4363823,28.2985229c0.0963135,0.1511841,0.1882324,0.2924194,0.2850342,0.4446411  c0.0371094,0.0141602,0.3242188,0.0634766,0.6630859-0.0830078c3.3267212-1.4507446,6.8827515-2.2145996,10.4539795-2.3095703  h1.5004272c1.8248901,0.0484619,3.6445313,0.2731323,5.4332886,0.6756592  c0.5118408,0.1152344,1.0205688,0.2455444,1.5264282,0.3897705c0.6505737,0.1853638,1.2963867,0.390686,1.9345093,0.6240845  c0.526001,0.1923218,1.048645,0.3961182,1.5644531,0.6210327c0.3349609,0.144043,0.6235352,0.0961914,0.6870117,0.0512695  c0.1675415-0.2666626,0.3374634-0.526123,0.5064087-0.7922363c0.2592163-0.4082642,0.5170898-0.810791,0.7769165-1.2154541  c0.0531616-0.0827637,0.105896-0.1660767,0.1589966-0.2486572c0.022522-0.0350342,0.0448608-0.0704956,0.0673828-0.1054688  c0.1600342-0.2487183,0.3205566-0.5039673,0.4794922-0.7501221c0.017334-0.0268555,0.0349731-0.0549927,0.0522461-0.0817871  c0.0203857-0.0315552,0.0412598-0.0648193,0.0615845-0.0963135c-0.0133667-0.0182495-0.0358276-0.041687-0.0610352-0.0656738  c-0.0355225-0.0338745-0.0802002-0.0703735-0.1450195-0.1086426c-0.1590576-0.0958252-0.3247681-0.1773071-0.4855347-0.2694702  c-0.0411987-0.0236206-0.0830688-0.0455933-0.1243286-0.0689697c-0.0352783-0.0199585-0.0709229-0.0391846-0.1063232-0.059021  c-0.2199097-0.1230469-0.4378662-0.2503662-0.6607666-0.3666992c-2.1525269-1.1235352-4.4387817-1.9326172-6.7863159-2.4281616  c-0.3583984-0.0756836-0.7189941-0.1367188-1.079895-0.1977539c-0.1645508-0.027832-0.3287354-0.0574341-0.4937134-0.0822144  c-0.3448486-0.0518188-0.6901245-0.095459-1.0366211-0.1339722c-0.5343628-0.0593872-1.0695801-0.1057739-1.6062622-0.1335449  c-0.3267822-0.0169067-0.6537476-0.0271606-0.980835-0.0323486c-0.1436157-0.0022583-0.2869873-0.0142212-0.430603-0.0142212  c-0.4290161-0.000061-0.8575439,0.0220947-1.2860718,0.0421753c-1.0336914,0.0485229-2.0631104,0.1581421-3.0855103,0.3239136  c-0.383728,0.0621948-0.767395,0.1228638-1.1483765,0.2015991c-0.1104736,0.0228271-0.2193604,0.0534668-0.3295898,0.0776978  c-0.5736694,0.1260986-1.1430664,0.2703247-1.7081299,0.434082c-0.6342163,0.1837769-1.2608643,0.3934937-1.8812256,0.6246948  c-0.3825684,0.1425781-0.7661133,0.2822266-1.1424561,0.4428101c-0.1583252,0.0675659-0.3117065,0.1478882-0.468811,0.2186279  c-0.4594727,0.2068481-0.9154053,0.421875-1.3637085,0.6560669c-0.1462402,0.076355-0.2885132,0.161377-0.4335327,0.2406616  c-0.0762329,0.041748-0.1522217,0.0840454-0.2280884,0.1265869c-0.0350952,0.0195923-0.0703735,0.0386963-0.1053467,0.0584717  c-0.0452881,0.0256348-0.0911255,0.0497437-0.1362305,0.0756226c-0.1547241,0.0888672-0.31427,0.1672363-0.4674072,0.2594604  c-0.0686646,0.0405884-0.1148682,0.0794678-0.1513672,0.1154175c-0.0245361,0.0241089-0.0471191,0.0479736-0.0600586,0.0662231  c0.0198364,0.0306396,0.0407715,0.0637817,0.0606079,0.0944824c0.0168457,0.026062,0.0345459,0.0541382,0.0513916,0.0802002  c0.1576538,0.2439575,0.3220215,0.5031128,0.480957,0.7501221c0.074707,0.1159668,0.1508789,0.2355957,0.2258301,0.3522949  c0.1091919,0.1699219,0.2190552,0.3415527,0.3288574,0.5128784c0.1494751,0.2333374,0.2971191,0.4625244,0.4478149,0.6984863  C25.2728691,28.0441284,25.3531303,28.1679077,25.4363823,28.2985229z M31.1370659,45.9799194  c0.2310791,0.164978,0.4805298,0.3100586,0.7287598,0.4561157c1.5609131,0.9185791,3.4459229,1.4813232,5.7628174,1.5991211  c2.3184814-0.1187744,4.2028198-0.6888428,5.760437-1.6209717c0.2263794-0.135498,0.4556885-0.2680054,0.6676636-0.4195557  c2.1984863-1.5713501,3.6300049-4.0045776,4.5402832-7.1236572c0.1054077-0.3612671,0.2088013-0.725708,0.3004761-1.1052856  c0.2434082-1.0076294,0.4431152-2.0747681,0.5992432-3.2051392c0.0611572-0.442688,0.1108398-0.902832,0.1600952-1.3634033  c0.0227661-0.2129517,0.0488281-0.4209595,0.0692139-0.6376953l-0.6452637-0.8900146  c-1.4105225-0.7587891-2.5657959-1.6694946-3.543457-2.6235352c-6.0665283-1.8978271-12.6862793-1.5692749-18.5551758,0.9902344  c-0.3461914,0.1499023-0.7041016,0.2216797-1.0419922,0.2216797c-0.2368774,0-0.4573364-0.0462646-0.6642456-0.1146851  c0.0568848,1.0600586,0.1437988,2.071228,0.2492065,3.0540771c0.0494385,0.4614258,0.0995483,0.9223633,0.1610107,1.3659058  c0.156311,1.1270142,0.3561401,2.19104,0.5996704,3.1959839c0.0921631,0.3803101,0.1959229,0.7454834,0.3019409,1.1073608  C27.4994316,41.9786377,28.934124,44.4074707,31.1370659,45.9799194z M27.7789726,52.3574219  c0.003479,0.0040283,0.0031128,0.008728,0.006897,0.0126953l4.8149414,5.0498047h-0.0004883  c0.0673828,0.0712891,0.1630859,0.1015625,0.2573242,0.1064453c0.0351563-0.0019531,0.0996094-0.0117188,0.137207-0.0595703  l2.0566406-2.6259766c0.0512695-0.0644531,0.0166016-0.1826172-0.0771484-0.2617188l-5.1323242-4.3369141  c-0.125-0.1083984-0.2939453-0.1025391-0.3613281-0.0292969l-0.6473389,0.7125244l-0.6195679,0.6820068l-0.4728394,0.5205078  C27.6916924,52.1818237,27.7106133,52.2783203,27.7789726,52.3574219z M23.2155571,71.9803467l6.2730103,2.0552368  c0.7020264-0.1817627,1.4623413-0.1591797,2.184021,0.1333618l2.0169678,0.8166504l0.3947754-0.8075562  c-0.6558838-0.8465576-0.9104614-1.9614868-0.6346436-3.0239868c0.0377197-0.1453857,0.1003418-0.2866211,0.1578979-0.428894  c0.0340576-0.0841675,0.0546265-0.1708374,0.0957642-0.253479l0.8359375-1.6787109l0.8364258-1.6796875  c0.0411377-0.0827026,0.0980835-0.1531982,0.1450195-0.2316284c0.0784912-0.1313477,0.1546021-0.2641602,0.248291-0.3827515  c0.4173584-0.5281982,0.9766846-0.927124,1.630127-1.1463623c0.807251-0.2720337,1.6640015-0.2254028,2.4439697,0.0978394  c1.3308105-2.2139893,3.4984741-5.5415649,6.3922119-9.0769043c0.8825073-1.0782471,1.8311157-2.1749878,2.8457642-3.2660522  h-0.3729248c-0.0647583,0.104187-0.1382446,0.204834-0.2269897,0.2978516l-2.1964722,2.3033447l-2.6189575,2.74646  c-0.3486328,0.3662109-0.828125,0.5712891-1.3266602,0.5712891c-0.0292969,0-0.0585938-0.0009766-0.0878906-0.0019531  C41.7560844,59,41.3024712,58.7695313,41.0065727,58.3925781l-1.3972168-1.7831421l-1.2956543,4.7138062  c-0.0893555,0.3251953-0.3852539,0.5507813-0.7231445,0.5507813s-0.6337891-0.2255859-0.7231445-0.5507813l-1.2955933-4.7136841  l-1.3967896,1.78302c-0.296875,0.3779297-0.7504883,0.6083984-1.2456055,0.6318359  c-0.0288086,0.0009766-0.0581055,0.0019531-0.0869141,0.0019531c-0.4990234,0-0.9785156-0.2050781-1.3271484-0.5712891h-0.0004883  l-1.2537842-1.3150635l-3.5606689-3.7347412c-0.0888062-0.0929565-0.1624146-0.1936646-0.2272339-0.2978516h-3.0076294  c-0.1376953,0-0.25,0.1123047-0.25,0.25v13.2142334V71.9803467z M39.0724907,73.5966797  c-0.0923462,0.1854248-0.2523804,0.3118286-0.4341431,0.3728638c-0.0766602,0.0257568-0.1560059,0.0431519-0.2377319,0.0431519  c-0.1123047,0-0.2265625-0.0253906-0.3339844-0.0791016l-0.5964966-0.2969971l-2.5101929-1.2498779l-0.0959473-0.0477295  c0.0087891,0.0560913,0.0249634,0.1103516,0.0383911,0.1654053c0.1351929,0.5541992,0.4953613,1.0499268,1.0446167,1.3237305  l2.2202148,1.1052856L39.3054008,75.5c0.9873047,0.4931641,2.1958008,0.0888672,2.6879883-0.9003906l1.6723633-3.3583984  c0.2387695-0.4794922,0.2763672-1.0224609,0.105957-1.5302734c-0.1699219-0.5078125-0.527832-0.9189453-1.0068359-1.1572266  l-1.1897583-0.5921631l-0.2229614-0.1110229l-0.7346802-0.3656616l-1.2114868-0.6030273  c-0.1062012-0.0530396-0.2166138-0.0923462-0.328125-0.1254883c-0.3914185-0.116333-0.8076782-0.1134033-1.2021484,0.0180664  c-0.0775757,0.026123-0.1481323,0.0644531-0.2208862,0.0990601c-0.029541,0.0140381-0.0609741,0.0248413-0.0896606,0.0402222  l0.0563354,0.0280151l1.0579224,0.5267334l1.4682007,0.7310791l0.053772,0.0267334l0.5673828,0.2825317  c0.1679688,0.0836792,0.2832642,0.2254639,0.3501587,0.3860474c0.0807495,0.1937256,0.0876465,0.4164429-0.0132446,0.6188354  c-0.1002197,0.2011719-0.2785645,0.3361816-0.4796753,0.3895264c-0.0625,0.0166016-0.1268921,0.0264893-0.1921997,0.0264893  c-0.1123047,0-0.2265625-0.0253906-0.3339844-0.0791016l-0.9326782-0.4643555l-0.4431763-0.2207031l-2.1594238-1.0751953  l-0.3484497,0.6997681l1.9938965,0.9928589l1.5421753,0.7678223c0.1744385,0.086853,0.2950439,0.2350464,0.3600464,0.4035645  c0.0731201,0.1895142,0.074585,0.4053955-0.0231323,0.6013184c-0.0965576,0.1939087-0.2660522,0.3261108-0.4581909,0.3833008  c-0.0691528,0.0205688-0.1408081,0.0327148-0.2136841,0.0327148c-0.1123047,0-0.2265625-0.0253906-0.3339844-0.0791016  l-1.5227661-0.7581787l-2.0126953-1.0021362l-0.3480835,0.6989746l2.1845093,1.0877075l1.3513794,0.6728516  c0.1810913,0.09021,0.3074951,0.244812,0.3701782,0.4215088C39.1713066,73.1982422,39.166851,73.4074097,39.0724907,73.5966797z   M29.861187,89.2744141l-1.6490479-0.8060913c-0.4961548-0.2425537-0.7017822-0.8414307-0.4592285-1.3375854l1.1991577-2.4532471  l-1.3170776-0.532959c-0.6426392-0.2603149-1.1603394-0.6949463-1.5342407-1.2226563l-2.8851929-0.9451904v7.0477295  c0,0.1376953,0.1123047,0.25,0.25,0.25H29.861187z M30.9284477,83.8589478l0.746582,0.3021851h0.0004883  c0.4970703,0.2021484,1.0405273,0.1972656,1.5336914-0.0117188c0.1060791-0.0449219,0.2042236-0.1020508,0.2993164-0.1629028  l-3.3168945-1.3429565c-0.0716553-0.0289307-0.1286011-0.0759888-0.1854858-0.1224365  c-0.2481689-0.2024536-0.3549194-0.5419312-0.2285767-0.854126c0.1393433-0.3463745,0.5060425-0.5174561,0.859314-0.4363403  c0.0391846,0.0089722,0.0787354,0.0065918,0.1172485,0.0222778l3.6096191,1.4614868l0.0513306,0.020813l0.2926636-0.7229614  l-0.0006714-0.0002441l-0.6843262-0.2770996l-2.975647-1.2046509c-0.0198364-0.0079956-0.0325317-0.0244141-0.0512695-0.0338745  c-0.3446045-0.1740723-0.5100708-0.5786743-0.362793-0.942688c0.1552734-0.3837891,0.5913086-0.5693359,0.9765625-0.4140625  l0.0412598,0.0167236l3.619751,1.4653931l0.2930298-0.7238159l-3.5690308-1.4448853l-0.0915527-0.0370483  c-0.3842773-0.1552734-0.5693359-0.5927734-0.4140625-0.9765625s0.5913086-0.5693359,0.9765625-0.4140625l0.1894531,0.0767212  l1.9210815,0.77771l1.2062988,0.4883423c-0.026001-0.1095581-0.0567017-0.2184448-0.1015015-0.3242188  c-0.2084961-0.4931641-0.597168-0.875-1.09375-1.0761719l-0.5254517-0.2127686l-1.0326538-0.4181519l-1.9194336-0.7772827  c-0.2451172-0.0996094-0.4990234-0.1464844-0.7490234-0.1464844c-0.7929688,0-1.5458984,0.4736328-1.8608398,1.2519531  l-1.4077148,3.4775391c-0.4150391,1.0253906,0.0810547,2.1962891,1.105957,2.6113281l1.4145508,0.5725098L30.9284477,83.8589478z   M51.9655571,81.7780762l-11.15271-4.6303101c-0.2043457,0.0367432-0.4109497,0.0621948-0.6202393,0.0621948  c-0.5239258,0-1.0556641-0.1181641-1.5556641-0.3662109l-1.1289063-0.5618896l-0.5147705,1.0531616  c0.3045044,0.6456909,0.4204712,1.3773804,0.2907104,2.1052246c-0.0280151,0.1569824-0.0814819,0.3117676-0.1320801,0.4669189  c-0.0252686,0.0776367-0.0370483,0.1566772-0.0681763,0.2334595l-0.7032471,1.7372437  c-0.0002441,0.0006714-0.0001221,0.0013428-0.0003662,0.0020142c-0.0003662,0.0008545-0.0010376,0.0014648-0.0014038,0.0023193  l-0.7026978,1.7359619c-0.03479,0.0858765-0.0862427,0.1607666-0.1270752,0.2428589  c-0.0658569,0.1322021-0.1275635,0.2670898-0.208374,0.3885498c-0.3759155,0.5651245-0.9067383,1.0098267-1.5458984,1.2807007  c-0.298584,0.1265869-0.6090698,0.1939697-0.921936,0.2344971l-1.5263672,3.1225586  c-0.083374,0.1706543-0.2172852,0.2915649-0.366272,0.387085h20.7354736c0.1376953,0,0.25-0.1123047,0.25-0.25V81.7780762z   M51.9655571,53.3574219c0-0.1376953-0.1123047-0.25-0.25-0.25h-0.3043823  c-1.784729,1.8215332-3.3856201,3.6906738-4.7876587,5.479248c-2.3184204,2.9577026-4.0910645,5.6879272-5.2441406,7.6013794  l2.0539551,1.0219116c0.6081543,0.3033447,1.0997314,0.7681885,1.4398193,1.3377686l7.0924072,2.8077393V53.3574219z   M83.7438202,76.6039429c1.3278809,0.3719482,4.7531128,1.1412354,7.2481079,0.0839233  c-0.3727417-2.5636597-1.6237183-4.5794067-3.1308594-4.9512329c-0.1640015-0.0404663-0.329834-0.0686646-0.4990234-0.0686646  c-0.1698608,0-0.3363647,0.0284424-0.5009766,0.0692139C85.3711395,72.1061401,84.1315155,74.0812988,83.7438202,76.6039429z   M90.1345062,88.1679688l-1.1943359-2.1699219c-0.3710938-0.6738281-0.2597656-1.4990234,0.2773438-2.0517578  c1.1669922-1.1992188,1.8916016-3.3779297,1.8916016-5.6865234c0-0.1807251-0.0073853-0.3588257-0.0159912-0.536377  c-1.0018311,0.3684692-2.0926514,0.5070801-3.1470947,0.5070801c-1.7590942,0-3.3891602-0.3657227-4.3126831-0.6183472  c-0.0125122,0.213501-0.0193481,0.4294434-0.0193481,0.647644c0,2.3076172,0.7246094,4.4863281,1.8916016,5.6865234  c0.5380859,0.5517578,0.6494141,1.3769531,0.2773438,2.0527344l-1.1943359,2.1689453  c-0.0595703,0.1083984-0.0234375,0.2021484,0.0039063,0.2480469s0.0917969,0.1230469,0.2158203,0.1230469h5.1074219  c0.1240234,0,0.1884766-0.0771484,0.2158203-0.1230469C90.1579437,88.3701172,90.1950531,88.2773438,90.1345062,88.1679688z   M87.3615341,75.6483154c0.6345215,0,1.1489258-0.5144043,1.1489258-1.1489258c0-0.6345825-0.5144043-1.1489868-1.1489258-1.1489868  c-0.6345825,0-1.1489868,0.5144043-1.1489868,1.1489868C86.2125473,75.1339111,86.7269516,75.6483154,87.3615341,75.6483154z"/><text x="0" y="115" fill="#000000" font-size="5px" font-weight="bold" font-family="'Helvetica Neue', Helvetica, Arial-Unicode, Arial, Sans-serif">Created by Llisole</text><text x="0" y="120" fill="#000000" font-size="5px" font-weight="bold" font-family="'Helvetica Neue', Helvetica, Arial-Unicode, Arial, Sans-serif">from the Noun Project</text></svg>