<svg xmlns="http://www.w3.org/2000/svg" xmlns:xlink="http://www.w3.org/1999/xlink" version="1.1" x="0px" y="0px" viewBox="0 0 100 125" enable-background="new 0 0 100 100" xml:space="preserve"><path d="M11.843,89.229c-3.337-3.354-5.002-7.438-5.002-12.275c0-4.747,1.665-8.812,5.002-12.21c0.928-0.942,1.92-1.74,2.963-2.42  c-3.919,0.087-7.265,1.492-10.007,4.275c-2.829,2.881-4.241,6.328-4.241,10.354c0,4.104,1.412,7.564,4.241,10.413  c2.728,2.731,6.055,4.117,9.948,4.217C13.725,90.919,12.754,90.141,11.843,89.229z"/><path d="M75.704,44.083c-1.045-1.046-1.566-2.328-1.566-3.854c0-1.462,0.521-2.714,1.566-3.76c1.041-1.042,2.328-1.562,3.856-1.562  h0.941v10.739h-0.941C78.032,45.647,76.745,45.125,75.704,44.083z"/><path d="M34.858,66.599c-2.864-2.872-6.305-4.309-10.315-4.309c-4.084,0-7.542,1.437-10.372,4.309  c-2.829,2.881-4.241,6.328-4.241,10.354c0,4.104,1.412,7.564,4.241,10.413c2.831,2.834,6.288,4.255,10.372,4.255  c4.01,0,7.451-1.421,10.315-4.255c2.864-2.849,4.297-6.31,4.297-10.413C39.155,72.927,37.722,69.479,34.858,66.599z M28.413,80.771  c-1.077,1.07-2.367,1.607-3.87,1.607c-1.504,0-2.794-0.537-3.87-1.607c-1.076-1.077-1.608-2.364-1.608-3.867  s0.532-2.795,1.608-3.873c1.075-1.073,2.366-1.609,3.87-1.609c1.503,0,2.793,0.536,3.87,1.609c1.071,1.078,1.609,2.37,1.609,3.873  S29.484,79.693,28.413,80.771z"/><path d="M95.176,67.345c-2.776-2.788-6.116-4.182-10.007-4.182c-3.964,0-7.316,1.394-10.062,4.182  c-2.744,2.795-4.113,6.14-4.113,10.047c0,3.979,1.369,7.339,4.113,10.102c2.745,2.75,6.098,4.128,10.062,4.128  c3.891,0,7.23-1.378,10.007-4.128c2.781-2.763,4.17-6.123,4.17-10.102C99.346,73.484,97.957,70.14,95.176,67.345z M88.923,81.094  c-1.041,1.038-2.295,1.56-3.754,1.56c-1.46,0-2.71-0.521-3.754-1.56c-1.043-1.045-1.558-2.295-1.558-3.75  c0-1.46,0.515-2.716,1.558-3.759c1.044-1.042,2.294-1.561,3.754-1.561c1.459,0,2.713,0.519,3.754,1.561  c1.041,1.043,1.562,2.299,1.562,3.759C90.485,78.799,89.964,80.049,88.923,81.094z"/><path d="M69.388,35.174h-7.915l-8.02-12.275c-1.06-1.188-2.376-1.787-3.962-1.787c-1.915,0-3.3,0.7-4.159,2.085L33.8,40.627  c-0.463,0.731-1.04,2.204-1.04,3.259c0,2.114,1.04,4.347,3.466,5.248l16.81,4.639L44.9,66.665c-1.155,1.836-0.608,4.257,1.226,5.415  c0.649,0.412,1.375,0.605,2.091,0.605c1.303,0,2.577-0.646,3.323-1.828l11.374-18.003c0.941-1.718,0.882-3.305,0.286-4.498  c-0.488-0.982-2.125-1.923-3.247-2.306l-13.04-3.897l6.139-9.453l3.765,5.937c0.725,1.125,1.647,1.684,2.773,1.684h9.797  c1.984,0,2.976-0.854,2.976-2.576C72.363,36.033,71.372,35.174,69.388,35.174z"/><path d="M48.854,55.306l-29.866-9.135c-0.276-0.069-0.624-0.102-1.039-0.102c-1.671,0-2.957,0.694-3.857,2.083l-2.4,3.547  l17.771,5.729c3.822,1.252,6.683,2.711,9,6.098c1.063,1.554,1.554,3.354,1.963,4.743L48.854,55.306z"/><g><path d="M56.895,17.185l1.526-4.513h10.3c-0.411-2.425-1.718-5.321-3.577-6.987c-1.912-1.71-4.35-2.568-6.872-2.568   c-2.961,0-5.51,1.176-7.638,3.526c-2.127,2.346-3.193,5.157-3.193,8.416c0,0.749,0.09,1.449,0.22,2.126H56.895z"/><path d="M59.83,14.634l-1.525,4.514h-5.521c1.324,1.809,3.44,2.997,5.852,2.997c4.036,0,7.309-3.271,7.309-7.307   c0-0.069-0.017-0.135-0.019-0.204H59.83z"/></g><path d="M92.737,53.28l-22.771-7.444L52.953,74.869H42.115v5.23h26.252c0,0-4.479-10.953,4.607-18.86  c11.777-10.25,25.842,2.725,25.842,2.725C100.562,58.728,95.219,54.284,92.737,53.28z"/><text x="0" y="115" fill="#000000" font-size="5px" font-weight="bold" font-family="'Helvetica Neue', Helvetica, Arial-Unicode, Arial, Sans-serif">Created by Luis Prado</text><text x="0" y="120" fill="#000000" font-size="5px" font-weight="bold" font-family="'Helvetica Neue', Helvetica, Arial-Unicode, Arial, Sans-serif">from the Noun Project</text></svg>