<svg xmlns="http://www.w3.org/2000/svg" xmlns:xlink="http://www.w3.org/1999/xlink" version="1.1" x="0px" y="0px" viewBox="0 0 91 113.75" style="enable-background:new 0 0 91 91;" xml:space="preserve"><g><path d="M87.2,68.1C81,70.6,76.1,73.3,69.3,74c-3.8,0.4-7.6-0.1-11.5,0.8c-2.7,0.6-5,1.8-7.3,2.9c-0.3-5.7-0.7-11.5-1.1-17.2   c0.6,0.6,1.5,0.7,2.4,0c2.1-1.7,4-3.4,5.9-5.2c0.6,1.2,1.2,2.3,1.8,3.5c0.3,0.7,1.5,0.9,2,0.3c0.7-0.9,1.5-1.9,2.2-2.8   c0.7,1.3,1.6,2.7,2.8,3.3c0.6,0.3,1.1,0.2,1.6-0.2c1.2-0.9,2.1-2.9,2.8-4.6c1.8,2.2,4,4.8,6.4,5.7c1.9,0.7,3.1-1.6,2.4-3.1   c-0.6-1.4-2.2-2.5-3.3-3.6c-1.5-1.6-3-3.1-4.4-4.8c-0.1-0.2-0.3-0.3-0.4-0.5c0.6-0.4,1.2-0.8,1.8-1.2c0.6,1.2,1.6,2.2,2.4,2.9   c1.1,0.9,2.5,1.3,3.8,0.3c0.8-0.6,1.4-1.5,2.1-2.2c0.2-0.2,0.3-0.3,0.5-0.5c1,1.4,2.1,2.8,3.1,4.2c1.7,2.5,5.6,0.2,4-2.4   c-1.6-2.6-8-11.7-10.4-12.1c-2-0.3-3.4,1-4.5,2.5C72.7,42,71.1,44,69.4,46c-0.3-0.4-0.6-0.7-0.8-1.1c-0.8-1.2-1.4-2.8-3-3.2   c-3.5-0.9-13.5,13-16.2,16.3c0,0.1-0.1,0.1-0.1,0.2c0-0.5-0.1-1.1-0.1-1.6c-0.3-3.8-0.7-7.6-1.1-11.5c-0.1-0.6-0.1-1.3-0.3-2.1   c3.2-1.1,6-3.2,4.2-6.8c-0.9-1.9-2.6-2.8-4.5-3c0.1-0.3-0.5-6.1-1.9-7.7c-0.3-0.4-1-0.3-1.2,0.2c-1,1.8-0.6,4.9-0.6,7   c0,0.2,0,0.3,0.1,0.5c-2.8-0.1-5.4-0.4-7.5-2.7c-1.8-1.9-2.3-4.8-3.9-6.9c-0.5-0.7-1-1.2-1.6-1.7c1-0.2,2.1-0.6,3-1.1   c4-2.5,5.8-7.7,4.1-12c-1-2.7-5.3-1.6-4.3,1.2c1.8,5.2-4.2,10.1-8.5,5.8c-1.9-1.9-1.7-4.7-0.1-6.8c2.3-3,5-1.6,8.1-2.2   C34,6.4,34.4,5,33.7,4.4c-3.9-3.1-9.5-1.5-12.4,2.1c-2.7,3.4-2.7,8-0.1,11.4c-1.4,0.6-2.5,1.7-3.5,3.1c-1.7-1.9-4.6-2.3-7.2-1.3   c-4.4,1.8-6,6.9-7,11.2c-0.6,2.6-1,5.3-1.5,8c-0.4,2.1-1,4.3-0.6,6.4c0.8,3.6,4.4,5.4,7.8,5.2c-1.6,8.3-5.9,31.5-4.8,34.1   c-1.5,0.6-2.8,1.4-4,2.4c-0.9,0.8,0.1,2,1,1.8c2.4-0.4,4.8-1.2,7.2-1.8c2.6,0.3,32.3-3.3,34.6-4.4c0.1,0,2.5-0.7,3.6-1   c1,1.2,3.5,0.9,3.8-0.9c2.8-0.5,5.8-0.9,8.5-1.3c3.8-0.6,7.7-0.1,11.6-0.7c3.3-0.5,6.2-2.1,9.4-2.9c3.1-0.8,6.1-1.7,9.1-2.8   C92.6,71.9,90.3,66.8,87.2,68.1z M78.2,41.8c-0.1,0,1.2,2,2.2,3.4c-0.3,0.3-0.6,0.6-0.9,0.8c-0.5,0.5-1.1,1.2-1.7,1.7   c-1.1-0.5-1.8-1.6-2.6-2.5C76.1,44,77.7,41.7,78.2,41.8z M62.1,50.4c0.6-0.8,1.5-2.7,2.5-3.7c0.6,0.8,1.2,1.9,1.6,2.5   c0.8,1,1.7,2,2.5,3c-0.2,0.5-0.4,0.9-0.6,1.4c-0.3,0.7-0.6,2-1,2.9c-0.8-1-1.5-2.6-2-3.6c-0.5-1-1.8-0.8-2.4,0   c-0.7,0.9-1.3,1.9-2,2.8c-0.4-0.7-0.9-1.5-1.3-2.2C60.3,52.6,61.3,51.5,62.1,50.4z M9.8,45.2c-1.4-0.1-2.6,0.1-3.1-1.4   c-0.3-1,0.6-3.4,0.8-4.4c0.5-2.9,1-5.8,1.8-8.6c0.7-2.4,2.1-7,5.5-6.3c0.2,0.1,0.5,0.2,0.8,0.4c-2.2,5-3.2,11.3-4,14.4   c-0.5,2-0.9,4-1.3,6C10.1,45.2,10,45.2,9.8,45.2z M12.8,82.4c-1.3,0.1-2.7,0.7-4,0.5c-1.3-0.1-1.2,0.3-1.1-1.4   c0.1-1.1,0.2-2.2,0.4-3.3c0.3-2.3,0.7-4.7,1.1-7c1.4-9,3-18,5-26.9c1-4.4,2.3-8.8,3.4-13.2c3.2-12,8.6-9.5,8.7-9.5   c1.9,1.3,3.3,2.9,4.4,4.9c0.9,1.6,1.3,3.5,2.3,5.1c2.1,3.2,5.5,4.6,9.2,5.2c1.8,0.3,4.8-0.7,5.7,1c0.9,0.8-1.8,1.6-2.3,1.7   c-1,0.2-2,0.2-3,0.2c-4.4-0.1-8.6-2.3-11.4-5.6c-1.7-1.9-4.4-0.3-4.6,1.7c-1.1,3.8-2,8-1.5,12c0.7,5.1,4.7,6.4,7.8,9.8   c3.2,3.5,3.2,8.9,3.8,13.4c0.4,3.2,1.1,6.2,2.6,9c-1.9,0.7-3.6,0.6-4.4-2.1c-0.5-1.7-0.7-3.5-1.2-5.2c-0.7-2.5-1.8-4.8-3.3-7   c-2.2-3.4-4.5-7.3-7.7-9.9c-0.8-1.5-3.7-1.1-3.9,1c-0.4,4.6-2.4,8.6-4.4,12.7c-1.3,2.6-3.4,5.9-3,9c0.2,1.4,0.9,2.8,2.1,3.6   c0.3,0.2,0.4,0.3,0.4,0.3c0,0,0,0,0,0C13.9,82.5,13.5,82.4,12.8,82.4z M21.4,82.1c-0.9,0-1.9,0.1-2.9,0.1c-0.1-0.9-0.6-1.8-1.3-2.5   c-1.2-1.3-1.6-1.9-1-3.8c0.5-1.4,1.3-2.8,1.9-4.2c1.9-4,3.6-7.9,4.5-12.2c2.7,4,5.8,8.2,7.3,12.7c0.9,2.9,0.7,7,2.5,9.6   C28.7,81.8,25.1,82,21.4,82.1z M43.9,80.1c-0.1-0.2-0.2-0.4-0.3-0.6c-5-6.2-2.2-15.4-6.3-22.1c-2.1-3.4-7.3-5.1-8.2-9   c-0.6-2.6-0.2-5.6,0.5-8.3c3.7,2.8,8.3,4.2,13.1,4c0.6,0,1.2-0.1,1.9-0.2c0,0.5,0,1.1,0.1,1.5c0.1,3.9,0.3,7.7,0.6,11.6   c0.5,7.4,1.4,15,1.2,22.4c-0.1,0-0.3,0.1-0.4,0.1C45.3,79.7,44.6,79.9,43.9,80.1z"/></g><text x="0" y="106" fill="#000000" font-size="5px" font-weight="bold" font-family="'Helvetica Neue', Helvetica, Arial-Unicode, Arial, Sans-serif">Created by BomSymbols</text><text x="0" y="111" fill="#000000" font-size="5px" font-weight="bold" font-family="'Helvetica Neue', Helvetica, Arial-Unicode, Arial, Sans-serif">from the Noun Project</text></svg>