<svg xmlns="http://www.w3.org/2000/svg" xmlns:xlink="http://www.w3.org/1999/xlink" version="1.1" x="0px" y="0px" viewBox="0 0 100 125" enable-background="new 0 0 100 100" xml:space="preserve"><g><circle cx="12.825" cy="76.756" r="5.999"/><path fill="none" stroke="#000000" stroke-width="1.5" d="M77.167,10.167c0,0-3.167-4-5.5,1.5S67.834,25.833,69.167,29   s0.167,6.833-0.5,9.333s-3.333,8.833-1.5,11.667"/></g><g><path d="M100,9.167H75.167c0,0,1,5.5,6,8.167s6.334,1,8.667,3.667s3.333,5.167,5.833,6.667s4.333,2,4.333,2V9.167z"/></g><g><path d="M33.092,73.873c1.002,1.361,0.712,3.277-0.65,4.281L9.34,95.162c-1.362,1.004-3.279,0.712-4.281-0.65l0,0   C4.057,93.15,4.347,91.234,5.71,90.23l23.1-17.008C30.174,72.219,32.09,72.51,33.092,73.873L33.092,73.873z"/></g><g><path d="M69.743,49.397c1.136,1.252,1.175,3.069,0.085,4.058L51.351,70.229c-1.091,0.989-2.895,0.775-4.032-0.477l0,0   c-1.136-1.252-1.174-3.068-0.084-4.059l18.479-16.772C66.803,47.931,68.606,48.145,69.743,49.397L69.743,49.397z"/></g><g><path d="M51.008,68.6c0.83,2.047-0.157,4.379-2.204,5.209L26.446,83.874c-2.047,0.829-4.38-0.157-5.21-2.204l-1.219-3.006   c-0.83-2.047,0.157-4.38,2.204-5.209l22.357-8.065c2.047-0.829,4.38,0.157,5.21,2.204L51.008,68.6z"/></g><text x="0" y="115" fill="#000000" font-size="5px" font-weight="bold" font-family="'Helvetica Neue', Helvetica, Arial-Unicode, Arial, Sans-serif">Created by Himanshu Agrawal</text><text x="0" y="120" fill="#000000" font-size="5px" font-weight="bold" font-family="'Helvetica Neue', Helvetica, Arial-Unicode, Arial, Sans-serif">from the Noun Project</text></svg>