<svg xmlns="http://www.w3.org/2000/svg" viewBox="0 0 100 125" x="0px" y="0px"><defs><style>.cls-1{fill:none;}</style></defs><title>Asset 677</title><g data-name="Layer 2"><g data-name="Layer 1"><rect class="cls-1" width="100" height="100"/><path d="M61,44.73a2.31,2.31,0,0,1,0-4.61l7.44,0a2.31,2.31,0,0,1,0,4.61l-7.44,0Z"/><path d="M20.86,91.1A18.86,18.86,0,1,1,39.73,72.24,18.88,18.88,0,0,1,20.86,91.1Zm0-33.12A14.26,14.26,0,1,0,35.12,72.24,14.27,14.27,0,0,0,20.86,58Z"/><path d="M79.14,91.1A18.86,18.86,0,1,1,98,72.24,18.89,18.89,0,0,1,79.14,91.1Zm0-33.12A14.26,14.26,0,1,0,93.39,72.24,14.27,14.27,0,0,0,79.14,58Z"/><path d="M57.56,59.6a2.3,2.3,0,0,1-1.19-4.28L69,47.8a2.3,2.3,0,1,1,2.36,4L58.74,59.27A2.22,2.22,0,0,1,57.56,59.6Z"/><path d="M79.51,74.45a2.32,2.32,0,0,1-2.16-1.51L66.41,43.37a2.3,2.3,0,0,1,4.32-1.6L81.67,71.34a2.3,2.3,0,0,1-1.36,3A2.22,2.22,0,0,1,79.51,74.45Z"/><path d="M20.61,74.6l-.16,0a2.46,2.46,0,0,1-1.76-3.8L31.22,49.23a2.3,2.3,0,1,1,3.93,2.4L24.6,69.93l11.18-.2a2.3,2.3,0,0,1,.08,4.6Z"/><path d="M36.87,52H28.69a2.3,2.3,0,1,1,0-4.6h8.18a2.3,2.3,0,1,1,0,4.6Z"/><circle cx="55.13" cy="14.85" r="5.95"/><path d="M46.12,74.55a4.76,4.76,0,0,1-.84-.07,4.61,4.61,0,0,1-3.7-5.36l4.19-22.9A50.45,50.45,0,0,0,38.23,46c-.85,0-1.62,0-2.26,0A6.24,6.24,0,0,1,30,42.75c-2.18-4.35,1.48-9.29,6.11-15.54.93-1.24,1.8-2.42,2.5-3.44a9.24,9.24,0,0,1,8.83-4,9.13,9.13,0,0,1,5,2.4c.53.48,1,1,1.62,1.66,1.81,2,4.29,4.64,7.46,5.15a4.61,4.61,0,1,1-1.47,9.1c-6.31-1-10.35-5.39-12.76-8-.42-.46-.82-.89-1.07-1.12l-2.74,3.7c-.8,1.08-1.94,2.61-2.92,4,5.32,0,9.88.41,12.59,3a6.89,6.89,0,0,1,2.1,5v.41l-4.68,25.6A4.6,4.6,0,0,1,46.12,74.55Z"/></g></g><text x="0" y="115" fill="#000000" font-size="5px" font-weight="bold" font-family="'Helvetica Neue', Helvetica, Arial-Unicode, Arial, Sans-serif">Created by Prashanth Rapolu</text><text x="0" y="120" fill="#000000" font-size="5px" font-weight="bold" font-family="'Helvetica Neue', Helvetica, Arial-Unicode, Arial, Sans-serif">from the Noun Project</text></svg>